:FULLY-SPECIFIED
:FORCE-ALL-JOINTS-BE-3DOF
:DEGREES
1631
root -15.0027 14.5884 19.3798 699.356 -71.1321 380.868
lfemur 12.8349 -10.3828 -13.2403
ltibia 26.624 0 0
lfoot -20.6262 27.6538 0
ltoes -46.0059 0 0
rfemur -52.81 -14.3043 6.95083
rtibia 66.1468 0 0
rfoot -9.53756 10.4657 0
rtoes 6.04902 0 0
lowerback 13.2498 4.36137 -8.2229
upperback -0.235522 4.40063 -0.86572
thorax -8.26979 2.42927 2.79048
lowerneck 1.01858 -12.3852 -12.5983
upperneck 3.68524 -16.9742 9.64037
head 2.82192 -8.51459 4.22343
lclavicle -7.53842e-14 2.82321e-14 0
lhumerus -71.81 -16.8304 103.965
lradius 104.375 0 0
lwrist 54.9325 0 0
lhand -7.57892 50.7139 0
lfingers 7.12502 0 0
lthumb 18.3134 79.8604 0
rclavicle -7.53842e-14 2.82321e-14 0
rhumerus 46.9735 -4.23477 -55.6272
rradius 19.2991 0 0
rwrist 22.4699 0 0
rhand -18.6516 -35.394 0
rfingers 7.12502 0 0
rthumb 7.64142 -65.2358 0
1632
root -15.0132 14.5869 19.3863 699.443 -71.1412 380.757
lfemur 12.8037 -10.4387 -13.2417
ltibia 26.7327 0 0
lfoot -20.6478 27.7244 0
ltoes -45.9272 0 0
rfemur -52.7876 -14.309 6.98245
rtibia 66.1336 0 0
rfoot -9.52724 10.4643 0
rtoes 5.95142 0 0
lowerback 13.2488 4.35565 -8.20662
upperback -0.234917 4.39703 -0.851508
thorax -8.26793 2.42726 2.79756
lowerneck 1.018 -12.3982 -12.5969
upperneck 3.69739 -16.9936 9.65326
head 2.82886 -8.52406 4.22496
lclavicle -7.00601e-14 2.66254e-14 0
lhumerus -71.8116 -16.8465 103.979
lradius 104.37 0 0
lwrist 54.9205 0 0
lhand -7.64758 50.6459 0
lfingers 7.12502 0 0
lthumb 18.2465 79.7873 0
rclavicle -7.00601e-14 2.66254e-14 0
rhumerus 46.9768 -4.23525 -55.6656
rradius 19.2888 0 0
rwrist 22.521 0 0
rhand -18.627 -35.4059 0
rfingers 7.12502 0 0
rthumb 7.66513 -65.2468 0
1633
root -15.0238 14.5854 19.3927 699.583 -71.157 380.593
lfemur 12.7692 -10.5195 -13.2431
ltibia 26.8694 0 0
lfoot -20.6788 27.8293 0
ltoes -45.8076 0 0
rfemur -52.7579 -14.3178 7.02799
rtibia 66.1206 0 0
rfoot -9.53177 10.4649 0
rtoes 5.8181 0 0
lowerback 13.2427 4.34633 -8.17817
upperback -0.236742 4.39185 -0.828724
thorax -8.26531 2.42436 2.80763
lowerneck 1.02183 -12.4212 -12.595
upperneck 3.7058 -17.0272 9.6731
head 2.83612 -8.5406 4.22766
lclavicle -6.20401e-14 2.41682e-14 0
lhumerus -71.8173 -16.8694 103.999
lradius 104.363 0 0
lwrist 54.905 0 0
lhand -7.85558 50.5336 0
lfingers 7.12502 0 0
lthumb 18.0452 79.6787 0
rclavicle -6.20401e-14 2.41682e-14 0
rhumerus 46.9793 -4.22954 -55.7125
rradius 19.2738 0 0
rwrist 22.5799 0 0
rhand -18.589 -35.4137 0
rfingers 7.12502 0 0
rthumb 7.70178 -65.2532 0
1634
root -15.0343 14.5839 19.3992 699.795 -71.1823 380.359
lfemur 12.7357 -10.6308 -13.2443
ltibia 27.0307 0 0
lfoot -20.7209 27.9775 0
ltoes -45.6354 0 0
rfemur -52.7207 -14.3328 7.09053
rtibia 66.1104 0 0
rfoot -9.56352 10.4694 0
rtoes 5.64464 0 0
lowerback 13.2281 4.33209 -8.13254
upperback -0.242798 4.38472 -0.794397
thorax -8.26179 2.42036 2.82129
lowerneck 1.03322 -12.4584 -12.5922
upperneck 3.70536 -17.0807 9.70204
head 2.84247 -8.5671 4.23203
lclavicle -5.05664e-14 2.06065e-14 0
lhumerus -71.8295 -16.9006 104.027
lradius 104.351 0 0
lwrist 54.8858 0 0
lhand -8.28483 50.3602 0
lfingers 7.12502 0 0
lthumb 17.6309 79.5253 0
rclavicle -5.05664e-14 2.06065e-14 0
rhumerus 46.98 -4.21325 -55.7659
rradius 19.253 0 0
rwrist 22.6412 0 0
rhand -18.5335 -35.4121 0
rfingers 7.12502 0 0
rthumb 7.75536 -65.2496 0
1635
root -15.0448 14.5824 19.4056 700.099 -71.2199 380.041
lfemur 12.7075 -10.778 -13.2451
ltibia 27.2135 0 0
lfoot -20.7762 28.178 0
ltoes -45.3985 0 0
rfemur -52.6754 -14.3557 7.17313
rtibia 66.1059 0 0
rfoot -9.63488 10.4795 0
rtoes 5.42659 0 0
lowerback 13.2016 4.31163 -8.06469
upperback -0.254885 4.37531 -0.745555
thorax -8.25722 2.41506 2.83914
lowerneck 1.05533 -12.5138 -12.5884
upperneck 3.69099 -17.1601 9.74221
head 2.84671 -8.6065 4.23856
lclavicle -3.48812e-14 1.56863e-14 0
lhumerus -71.8508 -16.9414 104.064
lradius 104.333 0 0
lwrist 54.8631 0 0
lhand -9.01723 50.1093 0
lfingers 7.12502 0 0
lthumb 16.9247 79.3178 0
rclavicle -3.48812e-14 1.56863e-14 0
rhumerus 46.9775 -4.18202 -55.8235
rradius 19.2251 0 0
rwrist 22.6995 0 0
rhand -18.4563 -35.3957 0
rfingers 7.12502 0 0
rthumb 7.82988 -65.2304 0
1636
root -15.0553 14.5808 19.4121 700.513 -71.2725 379.624
lfemur 12.6887 -10.9669 -13.2452
ltibia 27.4144 0 0
lfoot -20.8465 28.4399 0
ltoes -45.0853 0 0
rfemur -52.6218 -14.3885 7.27886
rtibia 66.1099 0 0
rfoot -9.75822 10.4969 0
rtoes 5.15953 0 0
lowerback 13.16 4.28364 -7.96961
upperback -0.274804 4.36325 -0.679229
thorax -8.25147 2.40828 2.86177
lowerneck 1.09132 -12.5918 -12.5834
upperneck 3.65759 -17.2709 9.79573
head 2.84761 -8.66169 4.24776
lclavicle -1.42268e-14 9.15348e-15 0
lhumerus -71.8834 -16.9932 104.112
lradius 104.309 0 0
lwrist 54.8369 0 0
lhand -10.1347 49.7642 0
lfingers 7.12502 0 0
lthumb 15.8478 79.0469 0
rclavicle -1.42268e-14 9.15348e-15 0
rhumerus 46.9708 -4.13146 -55.8833
rradius 19.1891 0 0
rwrist 22.7497 0 0
rhand -18.3533 -35.3593 0
rfingers 7.12502 0 0
rthumb 7.92936 -65.1902 0
1637
root -15.0658 14.5793 19.4185 701.057 -71.343 379.093
lfemur 12.6835 -11.2028 -13.2444
ltibia 27.6303 0 0
lfoot -20.9337 28.7721 0
ltoes -44.6838 0 0
rfemur -52.5595 -14.4331 7.41077
rtibia 66.1251 0 0
rfoot -9.94592 10.5232 0
rtoes 4.83901 0 0
lowerback 13.0998 4.24682 -7.84227
upperback -0.304357 4.34821 -0.592445
thorax -8.24439 2.39979 2.88979
lowerneck 1.14434 -12.6965 -12.5772
upperneck 3.60005 -17.4191 9.86475
head 2.84397 -8.73559 4.2601
lclavicle 1.21546e-14 7.53942e-16 0
lhumerus -71.9301 -17.0575 104.171
lradius 104.277 0 0
lwrist 54.807 0 0
lhand -11.7191 49.3086 0
lfingers 7.12502 0 0
lthumb 14.3215 78.7031 0
rclavicle 1.21546e-14 7.53942e-16 0
rhumerus 46.9586 -4.05721 -55.9433
rradius 19.1438 0 0
rwrist 22.7863 0 0
rhand -18.2202 -35.2976 0
rfingers 7.12502 0 0
rthumb 8.05781 -65.1236 0
1638
root -15.0763 14.5778 19.425 701.748 -71.434 378.433
lfemur 12.6963 -11.4915 -13.2423
ltibia 27.8579 0 0
lfoot -21.0399 29.1837 0
ltoes -44.182 0 0
rfemur -52.4881 -14.4914 7.57194
rtibia 66.1544 0 0
rfoot -10.2104 10.5604 0
rtoes 4.4606 0 0
lowerback 13.0179 4.19987 -7.67765
upperback -0.345344 4.32981 -0.482234
thorax -8.23584 2.38942 2.9238
lowerneck 1.21755 -12.832 -12.5694
upperneck 3.51329 -17.6105 9.9514
head 2.83455 -8.83111 4.27608
lclavicle 4.50208e-14 -9.76636e-15 0
lhumerus -71.9931 -17.1355 104.245
lradius 104.236 0 0
lwrist 54.7736 0 0
lhand -13.8523 48.7256 0
lfingers 7.12502 0 0
lthumb 12.267 78.2772 0
rclavicle 4.50208e-14 -9.76636e-15 0
rhumerus 46.9398 -3.95489 -56.0014
rradius 19.0881 0 0
rwrist 22.8042 0 0
rhand -18.053 -35.2053 0
rfingers 7.12502 0 0
rthumb 8.21922 -65.0251 0
1639
root -15.0868 14.5763 19.4314 702.606 -71.5483 377.63
lfemur 12.7312 -11.8384 -13.2388
ltibia 28.094 0 0
lfoot -21.1668 29.6838 0
ltoes -43.5683 0 0
rfemur -52.4073 -14.5654 7.76542
rtibia 66.2006 0 0
rfoot -10.5639 10.61 0
rtoes 4.01987 0 0
lowerback 12.9107 4.14147 -7.47073
upperback -0.399566 4.30773 -0.345624
thorax -8.22569 2.37695 2.96438
lowerneck 1.31412 -13.0026 -12.5599
upperneck 3.3922 -17.8507 10.0578
head 2.81815 -8.95117 4.29621
lclavicle 8.51295e-14 -2.26615e-14 0
lhumerus -72.075 -17.2288 104.333
lradius 104.184 0 0
lwrist 54.7366 0 0
lhand -16.6163 47.9989 0
lfingers 7.12502 0 0
lthumb 9.60554 77.7599 0
rclavicle 8.51295e-14 -2.26615e-14 0
rhumerus 46.9132 -3.82012 -56.0554
rradius 19.0208 0 0
rwrist 22.798 0 0
rhand -17.8474 -35.077 0
rfingers 7.12502 0 0
rthumb 8.41762 -64.8893 0
1640
root -15.0711 14.568 19.4405 702.9 -71.5765 377.375
lfemur 12.4642 -11.8835 -13.1882
ltibia 28.5497 0 0
lfoot -21.2273 29.779 0
ltoes -43.3989 0 0
rfemur -52.4573 -14.539 7.82334
rtibia 66.1906 0 0
rfoot -10.571 10.6143 0
rtoes 3.74624 0 0
lowerback 12.8942 4.12243 -7.42411
upperback -0.416873 4.29349 -0.318692
thorax -8.23199 2.36979 2.97067
lowerneck 1.35132 -13.0533 -12.5809
upperneck 3.32177 -17.9226 10.1295
head 2.80825 -8.98751 4.31842
lclavicle 8.38136e-14 -2.21533e-14 0
lhumerus -72.0717 -17.2668 104.36
lradius 104.158 0 0
lwrist 54.7022 0 0
lhand -16.9094 47.8513 0
lfingers 7.12502 0 0
lthumb 9.32311 77.6325 0
rclavicle 8.38136e-14 -2.21533e-14 0
rhumerus 46.9102 -3.83739 -56.063
rradius 19.0199 0 0
rwrist 22.6797 0 0
rhand -17.77 -35.0924 0
rfingers 7.12502 0 0
rthumb 8.49233 -64.9017 0
1641
root -15.0554 14.5598 19.4497 703.055 -71.5911 377.241
lfemur 12.3126 -11.9038 -13.1591
ltibia 28.8037 0 0
lfoot -21.2591 29.8257 0
ltoes -43.3122 0 0
rfemur -52.4872 -14.5227 7.85331
rtibia 66.1846 0 0
rfoot -10.5711 10.6163 0
rtoes 3.5985 0 0
lowerback 12.8861 4.1124 -7.4001
upperback -0.426089 4.28576 -0.30528
thorax -8.2357 2.36591 2.97346
lowerneck 1.37168 -13.0798 -12.5934
upperneck 3.28279 -17.9603 10.1689
head 2.80264 -9.00657 4.33092
lclavicle 8.27816e-14 -2.1743e-14 0
lhumerus -72.0686 -17.2871 104.374
lradius 104.144 0 0
lwrist 54.6827 0 0
lhand -17.0416 47.7777 0
lfingers 7.12502 0 0
lthumb 9.19581 77.5679 0
rclavicle 8.27816e-14 -2.1743e-14 0
rhumerus 46.9086 -3.84824 -56.065
rradius 19.0205 0 0
rwrist 22.6102 0 0
rhand -17.7293 -35.1021 0
rfingers 7.12502 0 0
rthumb 8.53157 -64.9096 0
1642
root -15.0397 14.5515 19.4588 703.124 -71.5969 377.185
lfemur 12.22 -11.9039 -13.1408
ltibia 28.948 0 0
lfoot -21.2729 29.8373 0
ltoes -43.2809 0 0
rfemur -52.5089 -14.5098 7.86491
rtibia 66.1801 0 0
rfoot -10.5622 10.6166 0
rtoes 3.52579 0 0
lowerback 12.884 4.10808 -7.39105
upperback -0.430314 4.28189 -0.301395
thorax -8.23824 2.36398 2.97338
lowerneck 1.38233 -13.0907 -12.6024
upperneck 3.2613 -17.976 10.19
head 2.79924 -9.0146 4.33829
lclavicle 8.14994e-14 -2.12141e-14 0
lhumerus -72.0636 -17.2965 104.378
lradius 104.136 0 0
lwrist 54.6709 0 0
lhand -17.0437 47.7559 0
lfingers 7.12502 0 0
lthumb 9.1938 77.5464 0
rclavicle 8.14994e-14 -2.12141e-14 0
rhumerus 46.908 -3.85727 -56.0609
rradius 19.0236 0 0
rwrist 22.5622 0 0
rhand -17.7121 -35.1099 0
rfingers 7.12502 0 0
rthumb 8.54823 -64.9167 0
1643
root -15.024 14.5433 19.4679 703.159 -71.5986 377.163
lfemur 12.13 -11.8886 -13.1222
ltibia 29.0743 0 0
lfoot -21.2791 29.8274 0
ltoes -43.2778 0 0
rfemur -52.5343 -14.4935 7.86772
rtibia 66.1747 0 0
rfoot -10.5422 10.6156 0
rtoes 3.47722 0 0
lowerback 12.8855 4.10614 -7.38933
upperback -0.432652 4.27918 -0.303045
thorax -8.24107 2.36266 2.97104
lowerneck 1.39044 -13.0948 -12.6128
upperneck 3.24336 -17.9821 10.2068
head 2.79597 -9.01785 4.34513
lclavicle 7.94329e-14 -2.03497e-14 0
lhumerus -72.055 -17.302 104.377
lradius 104.131 0 0
lwrist 54.6598 0 0
lhand -16.9467 47.764 0
lfingers 7.12502 0 0
lthumb 9.28724 77.5479 0
rclavicle 7.94329e-14 -2.03497e-14 0
rhumerus 46.9078 -3.86905 -56.0503
rradius 19.0301 0 0
rwrist 22.5086 0 0
rhand -17.7048 -35.1199 0
rfingers 7.12502 0 0
rthumb 8.55522 -64.9264 0
1644
root -15.0083 14.5351 19.477 703.211 -71.6008 377.132
lfemur 11.9863 -11.8625 -13.0923
ltibia 29.2746 0 0
lfoot -21.2883 29.8093 0
ltoes -43.2758 0 0
rfemur -52.5753 -14.4671 7.87136
rtibia 66.1661 0 0
rfoot -10.5092 10.614 0
rtoes 3.40193 0 0
lowerback 12.8882 4.10328 -7.38733
upperback -0.436203 4.27497 -0.306239
thorax -8.24562 2.36061 2.96707
lowerneck 1.40317 -13.1007 -12.6297
upperneck 3.21499 -17.9908 10.2333
head 2.79076 -9.02258 4.356
lclavicle 7.6048e-14 -1.89331e-14 0
lhumerus -72.0409 -17.3104 104.374
lradius 104.122 0 0
lwrist 54.6419 0 0
lhand -16.7816 47.7799 0
lfingers 7.12502 0 0
lthumb 9.44629 77.5527 0
rclavicle 7.6048e-14 -1.89331e-14 0
rhumerus 46.9076 -3.88818 -56.0327
rradius 19.0409 0 0
rwrist 22.4224 0 0
rhand -17.6942 -35.1361 0
rfingers 7.12502 0 0
rthumb 8.56543 -64.9421 0
